<svg width="93" height="127" viewBox="0 0 93 127" fill="none" xmlns="http://www.w3.org/2000/svg">
<g clip-path="url(#clip0)">
<path fill-rule="evenodd" clip-rule="evenodd" d="M2.7527 7.36774C1.09787 7.9023 -0.015625 9.43877 -0.015625 11.1718C-0.015625 19.3828 -0.015625 60.2198 -0.015625 74.8665C-0.015625 78.8571 1.0679 82.7726 3.12389 86.1935C13.5242 103.311 27.7458 116.58 45.1766 126.647C45.8185 127.019 46.6104 127.003 47.2422 126.611C63.9509 116.142 77.8216 102.831 88.6833 86.5095C91.0802 82.8899 92.3436 78.6485 92.3335 74.3149C92.3035 59.1828 92.1832 19.0307 92.1631 11.0184C92.1531 9.32845 91.0898 7.82306 89.4952 7.25841C60.5809 -2.90422 31.6669 -1.95545 2.7527 7.36673V7.36774ZM88.1612 11.0294C60.0995 1.16867 32.048 2.12545 3.98627 11.1728V74.8665C3.98627 78.131 4.86865 81.3354 6.54353 84.1255C16.3822 100.311 29.7717 112.927 46.1394 122.576C61.9053 112.514 75.0332 99.8062 85.3532 84.298C87.3089 81.3414 88.3417 77.8723 88.3316 74.3239C88.3016 59.1898 88.1813 19.0428 88.1612 11.0294Z" fill="#FFFFFF"/>
<path fill-rule="evenodd" clip-rule="evenodd" d="M48.9224 47.4368L63.522 27.8407H71.3218L52.982 52.4488L71.3218 77.0578H63.522L48.9224 57.4618V76.9328H29.7124C27.8524 76.9328 26.0722 76.1949 24.7622 74.8828C23.4522 73.5698 22.7124 71.7888 22.7124 69.9328C22.7124 66.3828 22.7124 62.2458 22.7124 62.2458H26.7124V69.9328C26.7124 70.7288 27.0323 71.4918 27.5923 72.0538C28.1523 72.6168 28.9224 72.9328 29.7124 72.9328H42.4819V31.9657H29.7124C28.9224 31.9657 28.1523 32.2817 27.5923 32.8437C27.0323 33.4067 26.7124 34.1698 26.7124 34.9658V43.8398H22.7124C22.7124 43.8398 22.7124 38.9408 22.7124 34.9658C22.7124 33.1088 23.4522 31.3287 24.7622 30.0157C26.0722 28.7027 27.8524 27.9657 29.7124 27.9657H48.9224V47.4368Z" fill="#FFFFFF"/>
</g>
<defs>
<clipPath id="clip0">
<rect width="93" height="127" fill="white"/>
</clipPath>
</defs>
</svg>
